<svg width="512" height="515.142" xmlns="http://www.w3.org/2000/svg" clip-rule="evenodd" fill-rule="evenodd" image-rendering="optimizeQuality" text-rendering="geometricPrecision" shape-rendering="geometricPrecision">

 <g>
  <title>Layer 1</title>
  <path stroke="null" id="svg_1" d="m307.57787,126.72657l76.46619,-34.64306c15.73017,-7.2237 32.25427,8.42334 26.50399,24.66216l-28.11396,79.76865l56.27213,62.71847c11.81354,13.16386 1.65506,34.0602 -15.68861,32.98017l-83.12269,-2.32429l-41.70457,73.43218c-8.60155,15.18914 -31.15885,12.38642 -35.91716,-4.40848l-23.59348,-81.02631l10.16643,34.91887l-190.1808,189.75932l-1.25633,1.12466c-9.11522,7.97169 -23.04533,7.38526 -31.57173,-1.20053l-0.0557,0l-15.73459,-15.88447c-9.03654,-9.12402 -9.04007,-24.14624 -0.00354,-33.27026l185.12366,-184.65015l-38.49612,-8.14574c-16.92991,-3.57035 -21.27091,-25.8734 -7.07999,-35.65525l69.12892,-47.83459l-9.01532,-84.17446c-1.85929,-17.38223 18.11551,-28.4735 31.66899,-17.56253l66.20427,51.41565zm-68.89817,151.15949l-27.01501,-5.71077l27.01501,5.71077zm177.9204,134.7695l1.96987,-1.13223c3.50286,-2.01992 5.02367,-5.98694 2.78421,-9.37252l-39.04325,-71.90336c-5.49212,-8.30373 -13.13121,-4.57399 -8.81938,4.42953l33.01148,76.02122c1.75497,3.66496 6.59332,3.98174 10.09707,1.95736zm-327.21447,-308.79434l-2.58773,4.54434c-1.61705,3.7328 0.4913,8.37871 4.28503,9.74883l67.81488,26.70428c9.30531,3.36684 12.85796,-3.98341 4.07781,-8.62218l-65.20041,-35.05095c-3.57359,-1.88514 -6.77255,-1.05266 -8.38959,2.67567zm219.87078,-95.09051l-4.32673,0.13158c-4.03598,0 -5.64031,3.34452 -5.36093,7.404l3.74905,60.87513c0.67812,9.95501 9.23017,10.47465 9.91536,0.5l1.24817,-60.87513c0.27938,-4.06305 -1.19248,-8.03558 -5.22493,-8.03558zm195.58195,157.84217l-0.76015,-2.31724c-0.96192,-3.95416 -5.28568,-3.98339 -9.12097,-2.73823l-68.60056,23.28415c-9.41759,3.04372 -7.51884,8.61043 2.24885,6.89845l70.63226,-16.9035c3.97233,-0.69532 6.56603,-4.26947 5.60058,-8.22363zm-256.43959,100.64873l-89.22308,-18.87552c-6.33114,-1.30942 -7.87481,-9.63904 -2.65323,-13.24777l75.21428,-52.04403l-9.80129,-91.53383c-0.70376,-6.62924 6.95798,-10.62803 11.9329,-6.4409l72.03235,55.9607l83.19342,-37.69124c5.89528,-2.67508 11.96207,3.19457 9.84904,9.17668l-30.555,86.74778l61.21786,68.23019c4.41615,4.9244 0.57733,12.66758 -5.8661,12.27306l-90.88079,-2.53227l-45.35685,79.86327c-3.2279,5.69559 -11.62699,4.54505 -13.38638,-1.637l-25.71713,-88.24911z"/>
 </g>
</svg>