<!-- Generated by IcoMoon.io -->
<svg version="1.1" xmlns="http://www.w3.org/2000/svg" width="16" height="16" viewBox="0 0 32 32">
<title>custom_creator</title>
<path d="M19.106 7.872l-4.113-3.194c-0.842-0.678-2.083 0.011-1.967 1.091l0.56 5.229-4.294 2.971c-0.882 0.608-0.612 1.993 0.44 2.215l2.391 0.506-11.5 11.47c-0.561 0.567-0.561 1.5 0 2.067l0.977 0.987h0.003c0.53 0.533 1.395 0.57 1.961 0.075l11.892-11.857 0.834 2.864c0.296 1.043 1.697 1.217 2.231 0.274l2.591-4.562 5.163 0.144c1.077 0.067 1.708-1.231 0.975-2.049l-3.496-3.896 1.746-4.955c0.357-1.009-0.669-1.981-1.646-1.532l-4.75 2.152zM14.826 17.262v0zM25.879 25.634l0.122-0.070c0.218-0.125 0.312-0.372 0.173-0.582l-2.425-4.467c-0.341-0.516-0.816-0.284-0.548 0.275l2.051 4.722c0.109 0.228 0.41 0.247 0.627 0.122zM5.553 6.452l-0.161 0.282c-0.1 0.232 0.031 0.52 0.266 0.606l4.213 1.659c0.578 0.209 0.799-0.247 0.253-0.536l-4.050-2.177c-0.222-0.117-0.421-0.065-0.521 0.166zM19.211 0.545l-0.269 0.008c-0.251 0-0.35 0.208-0.333 0.46l0.233 3.781c0.042 0.618 0.573 0.651 0.616 0.031l0.078-3.781c0.017-0.252-0.074-0.499-0.325-0.499zM31.36 10.35l-0.047-0.144c-0.060-0.246-0.328-0.247-0.567-0.17l-4.261 1.446c-0.585 0.189-0.467 0.535 0.14 0.429l4.388-1.050c0.247-0.043 0.408-0.265 0.348-0.511zM15.43 16.602l-5.542-1.173c-0.393-0.081-0.489-0.599-0.165-0.823l4.672-3.233-0.609-5.686c-0.044-0.412 0.432-0.66 0.741-0.4l4.475 3.476 5.168-2.341c0.366-0.166 0.743 0.198 0.612 0.57l-1.898 5.389 3.803 4.238c0.274 0.306 0.036 0.787-0.364 0.762l-5.645-0.157-2.818 4.961c-0.201 0.354-0.722 0.282-0.832-0.102l-1.598-5.482z"></path>
</svg>
