<svg width="512" height="512" xmlns="http://www.w3.org/2000/svg" clip-rule="evenodd" fill-rule="evenodd" image-rendering="optimizeQuality" text-rendering="geometricPrecision" shape-rendering="geometricPrecision">

 <g>
  <title>Layer 1</title>
  <path id="svg_1" d="m255.997,0c70.687,0 134.694,28.657 181.017,74.985c46.329,46.324 74.986,110.325 74.986,181.012s-28.657,134.694 -74.986,181.017c-46.323,46.329 -110.33,74.986 -181.017,74.986s-134.688,-28.657 -181.012,-74.986c-46.328,-46.323 -74.985,-110.33 -74.985,-181.017s28.657,-134.688 74.985,-181.012c46.324,-46.328 110.325,-74.985 181.012,-74.985zm164.309,91.693c-42.042,-42.048 -100.142,-68.056 -164.309,-68.056c-64.168,0 -122.262,26.008 -164.304,68.056c-42.048,42.042 -68.056,100.136 -68.056,164.304c0,64.167 26.008,122.267 68.056,164.309c42.042,42.048 100.136,68.056 164.304,68.056c64.167,0 122.267,-26.008 164.309,-68.056c42.048,-42.042 68.056,-100.142 68.056,-164.309c0,-64.168 -26.008,-122.262 -68.056,-164.304z" fill-rule="nonzero"/>
  <text transform="matrix(12.9277 0 0 7.37321 -3037.2 -1643.54)" stroke="null" font-style="normal" font-weight="normal" xml:space="preserve" text-anchor="start" font-family="'Montserrat'" font-size="35" id="svg_5" y="267.88862" x="246.14807" stroke-width="0" fill="#000000">1</text>
 </g>
</svg>