<svg width="130" height="130" xmlns="http://www.w3.org/2000/svg">

 <g>
  <title>Layer 1</title>
  <g>
   <g>
    <path clip-rule="evenodd" fill-rule="evenodd" d="m95.43473,84.89301c2.74,-0.48 5.33,-0.4 7.6,0.13l0.30395,-63.98828l-56.75395,12.25864l0,76.53963c0.03,0.34 0.05,0.69 0.05,1.03c0,0 0,0.01 0,0.01c0,8.34 -6.87109,16.62 -17.67109,18.49c-10.79,1.86 -19.55,-3.39 -19.55,-11.74c0,-8.34 8.76,-16.62 19.55,-18.48c4.06,-0.7 7.00493,-0.39 10.13493,0.71l-0.73989,-82.33901l0.47,0l73.05,-16.74l-0.30395,91.99901c0.13,0.63 0.2,1.27 0.2,1.91c0,0 0,0 0,0.01c0,6.97 -7.32,13.89 -16.33,15.44c-9.02,1.56 -16.33,-2.83 -16.33,-9.8c-0.01,-6.97 7.3,-13.89 16.32,-15.44l0,0l0,0z" class="st0"/>
   </g>
  </g>
 </g>
</svg>